<svg height="512" viewBox="0 0 32 32" width="512" xmlns="http://www.w3.org/2000/svg"><g id="compass_discover_adventure_gear" data-name="compass, discover, adventure, gear"><path d="m20.459 3.7886a1 1 0 1 0 -.6856 1.8789 11 11 0 1 1 -3.7734-.6675 1 1 0 0 0 0-2 13 13 0 1 0 4.459.7886z"/><path d="m13.0977 13.5688-3.6577 7.6573a1 1 0 0 0 1.333 1.3335l7.6573-3.6573a.9993.9993 0 0 0 .4716-.4711l3.6581-7.6573a1 1 0 0 0 -1.3334-1.3339l-7.6573 3.6573a.9993.9993 0 0 0 -.4716.4715zm6.4384-1.1044-2.2861 4.7856-4.7861 2.2856 2.2861-4.7856z"/></g></svg>