<svg id="Layer_1" height="512" viewBox="0 0 24 24" width="512" xmlns="http://www.w3.org/2000/svg" data-name="Layer 1"><path d="m20 22.75h-14a2.752 2.752 0 0 1 -2.75-2.75.75.75 0 0 1 1.5 0 1.252 1.252 0 0 0 1.25 1.25h14a.75.75 0 0 1 0 1.5z"/><path d="m4 16.75a.75.75 0 0 1 -.75-.75v-1a.75.75 0 0 1 1.5 0v1a.75.75 0 0 1 -.75.75z"/><path d="m20 22.75h-14a2.75 2.75 0 0 1 0-5.5h12a1.252 1.252 0 0 0 1.25-1.25v-12a1.252 1.252 0 0 0 -1.25-1.25h-12a1.252 1.252 0 0 0 -1.25 1.25v9a.75.75 0 0 1 -1.5 0v-9a2.752 2.752 0 0 1 2.75-2.75h12a2.752 2.752 0 0 1 2.75 2.75v12a2.752 2.752 0 0 1 -2.75 2.75h-12a1.25 1.25 0 0 0 0 2.5h14a.75.75 0 0 1 0 1.5z"/><path d="m10.008 14.029a1.755 1.755 0 0 1 -1.75-1.752v-4.554a1.75 1.75 0 0 1 2.618-1.523l3.984 2.28a1.751 1.751 0 0 1 0 3.04l-3.984 2.28a1.74 1.74 0 0 1 -.868.229zm0-6.557a.26.26 0 0 0 -.127.035.243.243 0 0 0 -.124.216v4.554a.25.25 0 0 0 .374.217l3.984-2.277a.25.25 0 0 0 0-.434l-3.983-2.277a.25.25 0 0 0 -.123-.034z"/></svg>