<svg id="Layer_1" enable-background="new 0 0 512 512" height="512" viewBox="0 0 512 512" width="512" xmlns="http://www.w3.org/2000/svg"><g><path d="m410.832 86.797c-13.048 0-23.663 10.639-23.663 23.717v291.126c1.194 31.473 46.23 31.36 47.416 0v-291.126c0-13.077-10.655-23.717-23.753-23.717z"/><path d="m256 86.797c-13.098 0-23.753 10.639-23.753 23.717v291.126c1.197 31.429 46.321 31.404 47.507 0v-291.126c0-13.077-10.656-23.717-23.754-23.717z"/><path d="m333.415 173.517c-13.047 0-23.661 10.639-23.661 23.717v117.687c1.194 31.475 46.229 31.358 47.415 0v-117.687c0-13.078-10.656-23.717-23.754-23.717z"/><path d="m488.247 216.878c-13.047 0-23.662 10.639-23.662 23.717v30.966c1.194 31.474 46.229 31.359 47.415 0v-30.966c0-13.078-10.655-23.717-23.753-23.717z"/><path d="m23.754 216.878c-13.098 0-23.754 10.639-23.754 23.716v30.966c1.198 31.382 46.233 31.451 47.415 0v-30.966c0-13.077-10.614-23.716-23.661-23.716z"/><path d="m101.169 130.157c-13.098 0-23.754 10.639-23.754 23.717v204.406c1.198 31.384 46.234 31.45 47.417 0v-204.406c0-13.078-10.615-23.717-23.663-23.717z"/><path d="m178.585.077c-13.098 0-23.753 10.639-23.753 23.717v464.566c1.197 31.383 46.232 31.45 47.415 0v-464.566c0-13.078-10.615-23.717-23.662-23.717z"/></g></svg>