<?xml version="1.0" encoding="UTF-8"?>
<!-- Generator: Adobe Illustrator 24.3.0, SVG Export Plug-In . SVG Version: 6.00 Build 0)  -->
<svg xmlns="http://www.w3.org/2000/svg" xmlns:xlink="http://www.w3.org/1999/xlink" version="1.1" id="Capa_1" x="0px" y="0px" viewBox="0 0 512.097 512.097" style="enable-background:new 0 0 512.097 512.097;" xml:space="preserve" width="512" height="512">
<g>
	<g id="object_61_">
		<g>
			<path d="M277.099,328.366c-9.801,0-17.746,7.945-17.746,17.746v62.659l-120.58-95.45c-5.526-4.36-12.357-6.737-19.396-6.747     h-57.73v-101.15h57.727c9.801,0,17.746-7.945,17.746-17.746c0-9.801-7.945-17.746-17.746-17.746H57.407     c-17.253,0.02-31.234,14.001-31.254,31.254v109.628c0.02,17.253,14.001,31.234,31.254,31.254h60.492l133.148,105.396     c11.705,9.263,28.703,7.283,37.966-4.422c3.778-4.774,5.834-10.684,5.833-16.772v-80.157c0-9.801-7.945-17.746-17.746-17.746     C277.099,328.366,277.099,328.366,277.099,328.366z"/>
		</g>
		<g>
			<path d="M506.802,481.705L431,405.904c77.752-91.53,72.233-227.413-12.686-312.336c-6.961-6.899-18.198-6.849-25.097,0.112     c-6.856,6.918-6.856,18.068,0.001,24.985c71.481,71.481,75.724,185.5,12.575,262.027l-41.66-41.66     c41.145-54.365,35.888-130.748-12.318-178.964c-6.961-6.899-18.198-6.849-25.097,0.113c-6.855,6.917-6.855,18.067,0,24.985     c34.769,34.769,38.783,89.109,11.966,128.415l-43.835-43.836V85.727c0.002-14.926-12.097-27.028-27.023-27.03     c-6.09-0.001-12.002,2.055-16.777,5.835l-90.099,71.32L30.295,5.198c-6.93-6.93-18.167-6.93-25.097,0s-6.93,18.167,0,25.097     l259.348,259.349l0.006,0.006l217.153,217.152c6.876,6.984,18.112,7.072,25.096,0.196c6.984-6.876,7.072-18.112,0.196-25.096     C506.932,481.835,506.867,481.77,506.802,481.705L506.802,481.705z M259.352,103.228v131.027l-73.135-73.135L259.352,103.228z"/>
		</g>
	</g>
</g>















</svg>
