<svg fill="none" height="512" viewBox="0 0 24 24" width="512" xmlns="http://www.w3.org/2000/svg"><g clip-rule="evenodd" fill="rgb(0,0,0)" fill-rule="evenodd"><path d="m16.6702 5.15997c0-.41421.3358-.75.75-.75 2.0742 0 3.75 1.67579 3.75 3.75v3.32003c0 .4142-.3358.75-.75.75s-.75-.3358-.75-.75v-3.32003c0-1.24578-1.0042-2.25-2.25-2.25-.4142 0-.75-.33578-.75-.75z"/><path d="m2.83008 5.15997c0-.41421.33578-.75.75-.75h9.41002c.4142 0 .75.33579.75.75 0 .41422-.3358.75-.75.75h-9.41002c-.41422 0-.75-.33578-.75-.75z"/><path d="m7.27041 1.46967c.2929.2929.29289.76777 0 1.06066l-2.62967 2.62965 2.62967 2.6297c.2929.29289.29289.76777 0 1.06066s-.76777.29289-1.06066-.00001l-3.16-3.16003c-.14066-.14065-.21967-.33141-.21967-.53033 0-.19891.07902-.38968.21967-.53033l3.16-3.15997c.2929-.29289.76777-.29289 1.06066 0z"/><path d="m3.58008 11.77c.41421 0 .75.3358.75.75v3.32c0 1.2458 1.00421 2.25 2.25 2.25h13.84002c.4142 0 .75.3358.75.75s-.3358.75-.75.75h-13.84002c-2.07422 0-3.75-1.6758-3.75-3.75v-3.32c0-.4142.33578-.75.75-.75z"/><path d="m16.7299 15.1497c.2929-.2929.7677-.2929 1.0606 0l3.16 3.16c.1407.1407.2196.3314.2196.5303s-.0789.3897-.2196.5304l-3.16 3.1599c-.2929.2929-.7677.2929-1.0606 0s-.2929-.7677 0-1.0606l2.6296-2.6297-2.6296-2.6297c-.2929-.2929-.2929-.7677 0-1.0606z"/></g></svg>